#N canvas -1622 222 1359 744 12;
#X obj 299 196 noise~, f 8;
#X obj 475 36 bng 25 250 50 0 empty empty empty 17 7 0 10 #191919 #13e100 #e1e1e1;
#X obj 299 254 *~;
#X obj 370 221 vline~;
#X obj 388 320 delwrite~ feedBackLoop 1000;
#X obj 299 548 *~ 0.5;
#X obj 299 585 dac~;
#X obj 532 197 vline~;
#X obj 299 517 *~;
#X obj 388 434 send~ delay, f 12;
#X obj 401 254 receive~ delay;
#X obj 299 298 +~;
#X obj 388 351 delread~ feedBackLoop 10;
#X floatatom 320 335 5 0 0 0 - - - 12;
#X msg 581 150 0 5000;
#X msg 413 164 0 1;
#X msg 370 126 1 1;
#X text 184 335 sets the pitch;
#X text 731 164 This patch provides a quick test implementation of the fundamental Karplus-Strong string synthesis algorithm. It starts with a short burst of noise \, simulating the initial excitation of a string being plucked or struck. This noise is then fed into a feedback loop \, creating a sustained string-like sound. The loop is formed by routing the noise through a delay line \, which represents the length and tension of the string \, and then back to the beginning., f 77;
#X text 401 291 feedback loop;
#X obj 532 233 send~ vline;
#X obj 321 479 receive~ vline;
#X text 731 144 KARPLUS STRONG STRING;
#X text 731 268 Key Points:;
#X text 731 322 > Feedback Loop: The core of the Karplus-Strong algorithm \, where the sound continually circulates through a delay line \, emulating the vibration of a string., f 73;
#X text 731 288 > Noise Generation: A brief \, sharp noise burst serves as the initial string excitation., f 72;
#X text 731 432 > Purpose: The aim is to demonstrate the fundamental mechanics of the Karplus-Strong technique \, serving as a foundational test bed for further exploration and refinement., f 72;
#X text 260 173 noise generator;
#X text 457 380 filter stage: brightness control;
#X obj 388 377 lop~ 1000;
#X obj 409 126 del 5;
#X obj 388 405 *~ 0.98;
#X msg 532 114 1 10;
#X obj 581 114 del 10;
#X text 731 370 > Simplicity: This is a rudimentary implementation \, intended as a starting point for experimentation. This patch sticks to the basic principles of the Karplus-Strong method \, without delving into finer aspects like precise pitch control or advanced timbral modifications., f 77;
#X connect 0 0 2 0;
#X connect 1 0 16 0;
#X connect 1 0 32 0;
#X connect 1 0 30 0;
#X connect 1 0 33 0;
#X connect 2 0 11 0;
#X connect 3 0 2 1;
#X connect 5 0 6 0;
#X connect 5 0 6 1;
#X connect 7 0 20 0;
#X connect 8 0 5 0;
#X connect 10 0 11 0;
#X connect 11 0 4 0;
#X connect 11 0 8 0;
#X connect 12 0 29 0;
#X connect 13 0 12 0;
#X connect 14 0 7 0;
#X connect 15 0 3 0;
#X connect 16 0 3 0;
#X connect 21 0 8 1;
#X connect 29 0 31 0;
#X connect 30 0 15 0;
#X connect 31 0 9 0;
#X connect 32 0 7 0;
#X connect 33 0 14 0;
